<?xml version="1.0" encoding="UTF-8" standalone="no"?>
<!-- Created with Inkscape (http://www.inkscape.org/) -->

<svg
   width="6.25in"
   height="6.25in"
   viewBox="0 0 158.75 158.75"
   version="1.1"
   id="svg5"
   inkscape:version="1.1.1 (3bf5ae0d25, 2021-09-20)"
   sodipodi:docname="Swirlx logotype white.svg"
   xmlns:inkscape="http://www.inkscape.org/namespaces/inkscape"
   xmlns:sodipodi="http://sodipodi.sourceforge.net/DTD/sodipodi-0.dtd"
   xmlns="http://www.w3.org/2000/svg"
   xmlns:svg="http://www.w3.org/2000/svg">
  <sodipodi:namedview
     id="namedview7"
     pagecolor="#ffffff"
     bordercolor="#999999"
     borderopacity="1"
     inkscape:pageshadow="0"
     inkscape:pageopacity="0"
     inkscape:pagecheckerboard="0"
     inkscape:document-units="mm"
     showgrid="false"
     units="in"
     width="6.5in"
     inkscape:snap-object-midpoints="true"
     inkscape:zoom="1.5554293"
     inkscape:cx="235.62627"
     inkscape:cy="299.9172"
     inkscape:window-width="2560"
     inkscape:window-height="1369"
     inkscape:window-x="2552"
     inkscape:window-y="922"
     inkscape:window-maximized="1"
     inkscape:current-layer="layer1" />
  <defs
     id="defs2">
    <g
       id="g825" />
  </defs>
  <g
     inkscape:label="Layer 1"
     inkscape:groupmode="layer"
     id="layer1">
    <g
       id="g893"
       transform="translate(-2.4742268e-7,9.5257734)"
       style="fill:#ffffff;fill-opacity:1">
      <g
         inkscape:label="Layer 1"
         id="layer1-8"
         style="display:inline;fill:#ffffff;fill-opacity:1" />
      <g
         id="layer2"
         inkscape:label="Layer 2"
         style="fill:#ffffff;fill-opacity:1">
        <g
           id="g921"
           transform="matrix(0.35277778,0,0,0.35277778,-0.61632163,7.4627266)"
           style="fill:#ffffff;fill-opacity:1">
          <path
             fill="#000000"
             d="m 395.82031,127.57031 c -0.008,0.0117 -0.008,0.0234 -0.008,0.0352 0,-0.0117 0,-0.0273 0.004,-0.0391 0,-0.004 0.0117,-0.008 0.0156,-0.008 -0.004,0.004 -0.0117,0.008 -0.0117,0.0117 z m 0,0"
             fill-opacity="1"
             fill-rule="nonzero"
             id="path829"
             style="fill:#ffffff;fill-opacity:1" />
          <path
             fill="#000000"
             d="m 448.5625,161.375 c -0.33594,-0.40234 -0.68359,-0.79297 -1.00781,-1.22266 -1.875,-2.48437 -3.98047,-4.78125 -6.1211,-7.04297 -0.23437,-0.24218 -0.47265,-0.48437 -0.72265,-0.71875 -0.46094,-0.46093 -0.94141,-0.91796 -1.41407,-1.3789 -0.004,-0.0117 -0.0117,-0.0156 -0.0234,-0.0234 -0.76953,-0.77734 -1.57422,-1.53906 -2.34766,-2.30469 -0.79687,-0.79297 -1.60937,-1.55859 -2.4375,-2.30859 -0.83203,-0.75781 -1.67187,-1.49609 -2.52734,-2.21484 -0.46094,-0.39063 -0.92969,-0.78125 -1.39453,-1.17188 -0.46094,-0.38281 -0.9375,-0.76172 -1.41407,-1.13281 -1.57812,-1.21094 -3.17968,-2.36719 -4.78906,-3.52735 -0.46484,-0.34375 -0.94531,-0.65234 -1.42578,-0.96875 -0.48438,-0.3125 -0.97656,-0.61328 -1.45313,-0.92578 -0.48828,-0.32812 -1.0039,-0.64062 -1.51562,-0.94531 -1.54297,-0.90234 -3.14453,-1.70703 -4.75391,-2.49219 -0.29297,-0.14453 -0.58984,-0.28125 -0.89062,-0.42578 -2.79297,-1.29297 -5.67969,-2.39453 -8.58985,-3.41797 -4.47265,-1.58984 -9.08593,-2.58593 -13.80078,-3.08984 -0.7539,-0.082 -1.5,-0.19141 -2.24609,-0.28125 -0.004,0 -0.004,0 -0.0117,-0.008 l -9.41797,-7.36719 c 0,0 -0.0508,-0.0469 -0.0703,-0.0625 -0.14844,-0.12891 -0.30078,-0.25781 -0.45313,-0.375 -0.58984,-0.48437 -1.19531,-0.95312 -1.8125,-1.39062 -0.75,-0.53907 -1.51562,-1.02735 -2.30468,-1.50391 -0.30469,-0.1875 -0.61328,-0.39063 -0.94532,-0.54688 -0.3164,-0.16406 -0.66796,-0.2539 -1.03125,-0.28125 -0.0625,-0.0117 -0.125,-0.0117 -0.19921,-0.0195 0.0312,0 0.0859,0.0469 0.10937,0.0625 0.0469,0.0234 0.0898,0.0547 0.13672,0.082 l 0.27344,0.15235 c 0.17578,0.0977 0.35156,0.20312 0.52734,0.3164 0.30859,0.19922 0.60938,0.42969 0.87891,0.6875 0.54297,0.51172 1.01562,1.10547 1.45312,1.69922 0.0742,0.10547 0.14453,0.21485 0.21875,0.3125 0.29688,0.41797 0.57813,0.83594 0.83985,1.26953 1.15625,1.8711 2.01171,3.87891 2.68359,5.98438 0.55469,1.69922 0.92578,3.4375 1.13672,5.19531 0.14844,1.16406 0.23437,2.33984 0.25781,3.52734 0.0391,1.875 -0.15234,3.72657 -0.48437,5.57422 -0.29688,1.60157 -0.74219,3.16016 -1.3086,4.69532 -1.0625,2.89843 -2.53125,5.57421 -4.38281,8.05468 -1.30469,1.74219 -2.74219,3.36719 -4.37891,4.80078 -2.19922,1.92188 -4.63281,3.50782 -7.26562,4.79297 -4.01563,1.95313 -8.21094,2.63282 -12.6211,2.03907 -0.25781,-0.0391 -0.40234,-0.0547 -0.47656,-0.1211 -0.082,-0.004 -0.17187,-0.0117 -0.2539,-0.0273 -0.81641,-0.16406 -4.17969,7.79297 -4.59375,8.8125 -1.45313,3.59765 -2.48047,7.375 -2.90625,11.23437 -0.36329,3.30469 -0.36719,6.69141 -0.29688,10.08594 4.20703,-2.04687 10.28516,-2.85547 13.83984,-3.16797 0.0117,0 0.0234,0 0.0352,-0.008 0.0703,-0.004 0.13281,-0.0156 0.20703,-0.0234 0.0586,-0.004 0.10156,-0.0117 0.15625,-0.0117 0.37891,-0.0391 0.76953,-0.0742 1.16797,-0.0977 0.0937,-0.004 0.19531,-0.004 0.30078,-0.0156 0.33203,-0.0117 0.67578,-0.0234 1.03516,-0.0312 h 0.25 c 0.42187,0 0.85937,0.008 1.30469,0.0312 0.0859,0 0.17187,0.0117 0.26953,0.0156 0.36718,0.0234 0.74218,0.0469 1.12109,0.0859 0.10938,0.0195 0.22266,0.0234 0.33203,0.043 0.45313,0.043 0.91797,0.1211 1.39063,0.19922 0.0625,0.0117 0.1289,0.0234 0.19922,0.0391 0.41015,0.0703 0.8164,0.17188 1.22265,0.26563 0.12891,0.0352 0.25781,0.0625 0.38672,0.0977 0.47656,0.1289 0.95703,0.26171 1.44141,0.41796 0.4414,0.15235 0.85937,0.3125 1.25,0.47266 5.46875,2.31641 6.375,6.39844 6.80468,11.97266 0.008,0.0586 0.008,0.12109 0.0117,0.17968 0.0234,0.37891 0.0586,0.75782 0.082,1.14454 0.0937,1.5 0.19532,3.09375 0.33204,4.80468 0.2539,-1.87109 0.67187,-3.69922 1.26562,-5.48437 1.83984,-5.6211 5.27734,-10.8086 9.65625,-15.51953 0.44531,-0.46485 0.89063,-0.9336 1.34375,-1.39453 0.87891,-0.89063 1.78906,-1.75782 2.72266,-2.61329 1.5039,-1.36328 3.0625,-2.67187 4.6875,-3.93359 2.1875,-1.71875 4.05859,-3.02734 5.73047,-4.06641 4.71093,-2.91796 7.76562,-3.54296 11.26953,-3.8789 0.0625,-0.0117 0.1289,-0.0156 0.19531,-0.0234 0.71094,-0.0625 1.44922,-0.12109 2.21484,-0.1875 0.39844,-0.0273 0.8125,-0.0625 1.24219,-0.0977 0.30078,-0.0352 0.61328,-0.0391 0.91797,-0.0391 1.84766,0.004 3.65625,0.51953 5.24219,1.22266 0.26172,0.10937 0.52734,0.23437 0.77734,0.35547 0.41406,0.20312 0.79688,0.41797 1.16406,0.6289 0.31641,0.19141 0.60938,0.3711 0.88282,0.54688 0.20703,0.13672 0.39062,0.26953 0.57421,0.40234 0.71875,0.50781 1.28125,0.98828 1.60547,1.32813 0.0195,0.0195 0.043,0.0391 0.0586,0.0625 0.0312,0.0156 0.0703,0.0273 0.10937,0.0273 0.0312,0 0.0547,0 0.0899,-0.0117 0.0234,-0.12109 -0.0195,-0.21484 -0.0469,-0.3164 -0.0195,-0.0273 -0.0234,-0.0625 -0.0352,-0.0898 -0.1289,-0.39062 -0.22265,-0.79297 -0.32812,-1.19531 -0.25781,-1 -0.49609,-2.00391 -0.69531,-3.01953 -0.16016,-0.85547 -0.35157,-1.69531 -0.55469,-2.53125 -0.21875,-0.86719 -0.46875,-1.71875 -0.73828,-2.57813 -0.62891,-1.9414 -1.34766,-3.84375 -2.03125,-5.77343 -0.0703,-0.21094 -0.13281,-0.41407 -0.19922,-0.625 -0.31641,-1.02344 -0.55078,-2.05469 -0.57031,-3.14063 -0.0156,-0.85547 0.23437,-1.60156 0.70312,-2.29687 0.34375,-0.50782 0.75781,-0.94141 1.21485,-1.3086 0.23437,-0.18359 0.48046,-0.35156 0.73828,-0.5039 0.25781,-0.15625 0.51953,-0.30469 0.79297,-0.4375 0.23828,-0.1211 0.48437,-0.21094 0.72265,-0.30469 0.44922,-0.17188 0.90235,-0.3086 1.35547,-0.39063 0.71484,-0.1289 1.44141,-0.14453 2.19922,-0.0625 1.08594,0.11328 2.14844,0.36719 3.19141,0.66016 0.25781,0.0742 0.51562,0.14453 0.76171,0.21484 0.41407,0.12891 0.8125,0.26563 1.21485,0.41016 0.39844,0.14844 0.80078,0.30859 1.19531,0.49219 0.57813,0.25 1.16406,0.53906 1.73828,0.83593 0.1836,0.0937 0.3711,0.1875 0.5586,0.28125 0.0391,0.0234 0.0781,0.043 0.11328,0.0664 1.39843,0.72266 2.71875,1.57031 4.03515,2.42969 1.77344,1.13672 3.60938,2.19922 5.22657,3.57031 0.0742,0.0508 0.14453,0.15234 0.26562,0.0508 -0.0156,-0.10547 -0.0898,-0.17578 -0.14453,-0.25781 z m 0,0"
             fill-opacity="1"
             fill-rule="nonzero"
             id="path831"
             style="fill:#ffffff;fill-opacity:1" />
          <g
             fill="#000000"
             fill-opacity="1"
             id="g839"
             style="fill:#ffffff;fill-opacity:1">
            <g
               transform="translate(8.15e-6,225.86018)"
               id="g837"
               style="fill:#ffffff;fill-opacity:1">
              <g
                 id="g835"
                 style="fill:#ffffff;fill-opacity:1">
                <path
                   d="m 35.109375,1.421875 c -5.679687,0 -11.3125,-0.996094 -16.90625,-2.984375 -5.59375,-1.988281 -9.625,-4.21875 -12.09375,-6.6875 l 7.546875,-13.5 c 1.988281,1.804688 5.085938,3.679688 9.296875,5.625 4.21875,1.9375 8.269531,2.90625 12.15625,2.90625 5.03125,0 9.128906,-1.179688 12.296875,-3.546875 3.175781,-2.375 4.765625,-5.648437 4.765625,-9.828125 0,-3.21875 -0.855469,-6.007812 -2.5625,-8.375 -1.699219,-2.375 -3.78125,-4.34375 -6.25,-5.90625 -2.460937,-1.5625 -5.964844,-3.476562 -10.515625,-5.75 C 27.4375,-49.28125 23.738281,-51.273438 21.75,-52.609375 12.5625,-58.765625 7.96875,-67.289062 7.96875,-78.1875 c 0,-9.007812 2.984375,-15.90625 8.953125,-20.6875 5.96875,-4.78906 13.503906,-7.1875 22.609375,-7.1875 9.757812,0 18.050781,2.79687 24.875,8.390625 l -7.53125,12.9375 c -1.804688,-1.894531 -4.339844,-3.53125 -7.609375,-4.90625 -3.273437,-1.375 -6.757813,-2.0625 -10.453125,-2.0625 -4.742188,0 -8.464844,1.070313 -11.171875,3.203125 -2.699219,2.136719 -4.046875,5.289062 -4.046875,9.453125 0,2.9375 0.851562,5.570313 2.5625,7.890625 1.707031,2.324219 3.863281,4.339844 6.46875,6.046875 2.601562,1.699219 6.132812,3.78125 10.59375,6.25 4.269531,2.367187 7.539062,4.234375 9.8125,5.609375 2.269531,1.375 4.398438,3.011719 6.390625,4.90625 2.75,2.46875 4.976563,5.414062 6.6875,8.828125 1.707031,3.40625 2.5625,7.148437 2.5625,11.21875 0,6.355469 -1.449219,11.761719 -4.34375,16.21875 -2.886719,4.449219 -6.867187,7.8125 -11.9375,10.09375 -5.074219,2.269531 -10.835937,3.40625 -17.28125,3.40625 z m 0,0"
                   id="path833"
                   style="fill:#ffffff;fill-opacity:1" />
              </g>
            </g>
          </g>
          <g
             fill="#000000"
             fill-opacity="1"
             id="g847"
             style="fill:#ffffff;fill-opacity:1">
            <g
               transform="translate(74.635053,225.86018)"
               id="g845"
               style="fill:#ffffff;fill-opacity:1">
              <g
                 id="g843"
                 style="fill:#ffffff;fill-opacity:1">
                <path
                   d="M 49.90625,-36.25 30.5625,0 h -2.703125 l -27.4375,-65.25 h 16.5 L 31,-27.296875 49.625,-65.25 h 0.5625 L 68.953125,-27.578125 83.03125,-65.25 H 99.234375 L 71.9375,0 h -2.703125 z m 0,0"
                   id="path841"
                   style="fill:#ffffff;fill-opacity:1" />
              </g>
            </g>
          </g>
          <g
             fill="#000000"
             fill-opacity="1"
             id="g855"
             style="fill:#ffffff;fill-opacity:1">
            <g
               transform="translate(174.2906,225.86018)"
               id="g853"
               style="fill:#ffffff;fill-opacity:1">
              <g
                 id="g851"
                 style="fill:#ffffff;fill-opacity:1">
                <path
                   id="path849"
                   style="stroke-width:1.33333;fill:#ffffff;fill-opacity:1"
                   transform="matrix(0.75,0,0,0.75,-172.54355,-247.01437)"
                   d="m 245.03711,242.35156 v 87 h 21.22851 v -87 z" />
              </g>
            </g>
          </g>
          <g
             fill="#000000"
             fill-opacity="1"
             id="g863"
             style="fill:#ffffff;fill-opacity:1">
            <g
               transform="translate(212.67434,225.86018)"
               id="g861"
               style="fill:#ffffff;fill-opacity:1">
              <g
                 id="g859"
                 style="fill:#ffffff;fill-opacity:1">
                <path
                   d="m 9.671875,-65.25 h 15.34375 v 12.78125 C 26.535156,-56.820312 29,-60.328125 32.40625,-62.984375 c 3.414062,-2.65625 7.304688,-3.984375 11.671875,-3.984375 3.03125,0 5.113281,0.289062 6.25,0.859375 l -2.125,15.5 C 47.347656,-51.179688 45.5,-51.46875 42.65625,-51.46875 c -4.460938,0 -8.515625,1.421875 -12.171875,4.265625 -3.648437,2.84375 -5.46875,7.398437 -5.46875,13.65625 V 0 H 9.671875 Z m 0,0"
                   id="path857"
                   style="fill:#ffffff;fill-opacity:1" />
              </g>
            </g>
          </g>
          <g
             fill="#000000"
             fill-opacity="1"
             id="g871"
             style="fill:#ffffff;fill-opacity:1">
            <g
               transform="translate(263.71047,225.86018)"
               id="g869"
               style="fill:#ffffff;fill-opacity:1">
              <g
                 id="g867"
                 style="fill:#ffffff;fill-opacity:1">
                <path
                   d="M 11.375,-104.5 H 26.59375 V 0 H 11.375 Z m 0,0"
                   id="path865"
                   style="fill:#ffffff;fill-opacity:1" />
              </g>
            </g>
          </g>
          <g
             fill="#000000"
             fill-opacity="1"
             id="g879"
             style="fill:#ffffff;fill-opacity:1">
            <g
               transform="translate(301.80989,225.86018)"
               id="g877"
               style="fill:#ffffff;fill-opacity:1">
              <g
                 id="g875"
                 style="fill:#ffffff;fill-opacity:1">
                <path
                   d="M 26.015625,-33.84375 3.125,-65.25 H 21.328125 L 34.6875,-45.0625 47.34375,-65.25 h 18.625 L 42.9375,-34.6875 67.953125,0 h -17.625 l -15.5,-23.03125 L 20.046875,0 H 1.5625 Z m 0,0"
                   id="path873"
                   style="fill:#ffffff;fill-opacity:1" />
              </g>
            </g>
          </g>
          <g
             fill="#000000"
             fill-opacity="1"
             id="g885"
             style="fill:#ffffff;fill-opacity:1">
            <g
               transform="translate(371.50359,225.86018)"
               id="g883"
               style="fill:#ffffff;fill-opacity:1">
              <g
                 id="g881"
                 style="fill:#ffffff;fill-opacity:1" />
            </g>
          </g>
        </g>
      </g>
    </g>
  </g>
</svg>
