<?xml version="1.0" encoding="utf-8"?>
<!-- Generator: Adobe Illustrator 25.2.0, SVG Export Plug-In . SVG Version: 6.00 Build 0)  -->
<svg version="1.1" id="Layer_1" xmlns="http://www.w3.org/2000/svg" xmlns:xlink="http://www.w3.org/1999/xlink" x="0px" y="0px"
	 viewBox="0 0 800 800" style="enable-background:new 0 0 800 800;" xml:space="preserve">
<style type="text/css">
	.st0{fill:#FFFFFF;}
	.st1{fill:#1A1A1A;}
</style>
<rect width="800" height="800"/>
<path class="st0" d="M399.99,280.96c-0.03,0.04-0.03,0.08-0.03,0.12c0-0.04,0-0.09,0.01-0.13c0.01-0.01,0.04-0.03,0.06-0.03
	C400.01,280.93,399.99,280.95,399.99,280.96z"/>
<path class="st0" d="M582.05,397.66c-1.15-1.39-2.36-2.74-3.47-4.22c-6.48-8.58-13.74-16.51-21.13-24.32
	c-0.81-0.83-1.63-1.67-2.5-2.48c-1.59-1.59-3.25-3.17-4.88-4.76c-0.02-0.04-0.04-0.06-0.08-0.08c-2.66-2.68-5.43-5.31-8.11-7.95
	c-2.74-2.74-5.55-5.39-8.41-7.97c-2.87-2.62-5.77-5.17-8.72-7.65c-1.59-1.35-3.21-2.7-4.82-4.04c-1.59-1.33-3.23-2.64-4.88-3.92
	c-5.45-4.18-10.98-8.17-16.53-12.17c-1.61-1.19-3.27-2.26-4.92-3.35c-1.67-1.07-3.37-2.12-5.02-3.19c-1.69-1.13-3.47-2.22-5.23-3.27
	c-5.33-3.11-10.86-5.89-16.41-8.6c-1.01-0.5-2.04-0.97-3.07-1.47c-9.65-4.46-19.61-8.27-29.66-11.8
	c-15.44-5.49-31.36-8.92-47.64-10.67c-2.6-0.28-5.17-0.65-7.75-0.97c-0.02,0-0.02,0-0.04-0.02l-32.51-25.43c0,0-0.18-0.16-0.24-0.22
	c-0.52-0.44-1.05-0.89-1.57-1.29c-2.04-1.67-4.12-3.29-6.26-4.8c-2.58-1.86-5.23-3.55-7.95-5.19c-1.05-0.65-2.12-1.35-3.27-1.9
	c-1.09-0.56-2.3-0.87-3.55-0.97c-0.22-0.04-0.44-0.04-0.69-0.06c0.1,0,0.3,0.16,0.38,0.22c0.16,0.08,0.3,0.18,0.46,0.28l0.95,0.52
	c0.61,0.34,1.21,0.71,1.82,1.09c1.07,0.69,2.1,1.49,3.03,2.38c1.88,1.76,3.51,3.81,5.02,5.87c0.26,0.36,0.5,0.73,0.75,1.07
	c1.03,1.45,2,2.89,2.91,4.38c3.98,6.46,6.94,13.4,9.26,20.66c1.92,5.87,3.19,11.87,3.92,17.94c0.52,4.02,0.81,8.07,0.89,12.17
	c0.14,6.48-0.52,12.87-1.67,19.25c-1.03,5.53-2.56,10.9-4.52,16.2c-3.67,10.01-8.74,19.25-15.13,27.81
	c-4.5,6.01-9.46,11.62-15.11,16.57c-7.59,6.64-16,12.11-25.08,16.55c-13.86,6.74-28.35,9.08-43.57,7.04
	c-0.89-0.14-1.39-0.2-1.65-0.42c-0.28-0.02-0.59-0.04-0.87-0.1c-2.82-0.56-14.43,26.9-15.86,30.43
	c-5.02,12.41-8.56,25.45-10.03,38.78c-1.25,11.4-1.27,23.1-1.03,34.81c14.53-7.06,35.51-9.85,47.78-10.94c0.04,0,0.08,0,0.12-0.02
	c0.24-0.02,0.46-0.06,0.71-0.08c0.2-0.02,0.36-0.04,0.54-0.04c1.31-0.14,2.66-0.26,4.04-0.34c0.32-0.02,0.67-0.02,1.03-0.06
	c1.15-0.04,2.34-0.08,3.57-0.1h0.87c1.45,0,2.97,0.02,4.5,0.1c0.3,0,0.6,0.04,0.93,0.06c1.27,0.08,2.56,0.16,3.87,0.3
	c0.38,0.06,0.77,0.08,1.15,0.14c1.57,0.16,3.17,0.42,4.8,0.69c0.22,0.04,0.44,0.08,0.69,0.14c1.41,0.24,2.82,0.59,4.22,0.91
	c0.44,0.12,0.89,0.22,1.33,0.34c1.65,0.44,3.31,0.91,4.98,1.45c1.53,0.52,2.97,1.07,4.32,1.63c18.87,7.99,22,22.08,23.49,41.33
	c0.02,0.2,0.02,0.42,0.04,0.61c0.08,1.31,0.2,2.62,0.28,3.95c0.32,5.19,0.67,10.69,1.15,16.59c0.87-6.46,2.32-12.77,4.36-18.93
	c6.36-19.41,18.22-37.31,33.34-53.57c1.53-1.61,3.07-3.23,4.64-4.82c3.03-3.07,6.17-6.07,9.4-9.02c5.19-4.7,10.57-9.22,16.18-13.58
	c7.55-5.93,14-10.45,19.78-14.04c16.26-10.07,26.8-12.23,38.9-13.38c0.22-0.04,0.44-0.06,0.67-0.08c2.46-0.22,5-0.42,7.65-0.65
	c1.37-0.1,2.81-0.22,4.28-0.34c1.05-0.12,2.12-0.14,3.17-0.14c6.38,0.02,12.63,1.8,18.1,4.22c0.91,0.38,1.82,0.81,2.68,1.23
	c1.43,0.71,2.76,1.45,4.02,2.18c1.09,0.65,2.1,1.27,3.05,1.88c0.71,0.48,1.35,0.93,1.98,1.39c2.48,1.76,4.42,3.41,5.55,4.58
	c0.06,0.08,0.14,0.14,0.2,0.22c0.1,0.06,0.24,0.1,0.38,0.1c0.1,0,0.18,0,0.3-0.04c0.08-0.42-0.06-0.75-0.16-1.09
	c-0.06-0.1-0.08-0.22-0.12-0.32c-0.44-1.35-0.77-2.74-1.13-4.12c-0.89-3.45-1.72-6.92-2.4-10.43c-0.56-2.95-1.21-5.85-1.92-8.74
	c-0.75-2.99-1.61-5.93-2.54-8.9c-2.18-6.7-4.66-13.26-7.02-19.92c-0.24-0.73-0.46-1.43-0.69-2.16c-1.09-3.53-1.9-7.1-1.96-10.84
	c-0.06-2.95,0.81-5.53,2.42-7.93c1.19-1.76,2.62-3.25,4.2-4.52c0.81-0.63,1.65-1.21,2.54-1.74c0.89-0.54,1.8-1.05,2.74-1.51
	c0.83-0.42,1.67-0.73,2.5-1.05c1.55-0.59,3.11-1.07,4.68-1.35c2.46-0.44,4.98-0.5,7.59-0.22c3.75,0.4,7.41,1.27,11.02,2.28
	c0.89,0.26,1.78,0.5,2.62,0.75c1.43,0.44,2.81,0.91,4.2,1.41c1.37,0.52,2.76,1.07,4.12,1.7c2,0.87,4.02,1.86,6.01,2.89
	c0.63,0.32,1.27,0.65,1.92,0.97c0.14,0.08,0.28,0.14,0.4,0.22c4.82,2.5,9.38,5.43,13.92,8.39c6.13,3.93,12.47,7.59,18.04,12.33
	c0.26,0.18,0.5,0.53,0.93,0.18C582.5,398.18,582.25,397.94,582.05,397.66z"/>
</svg>
